HIERARCHY
ROOT Hips
{
  OFFSET 53.4117 91.6221 6.10356
  CHANNELS 6 Xposition Yposition Zposition Zrotation Xrotation Yrotation
  JOINT spine
  {
    OFFSET 0 6.84637 0.3937
    CHANNELS 3 Zrotation Xrotation Yrotation
    JOINT spine1
    {
      OFFSET 0 9.49621 0
      CHANNELS 3 Zrotation Xrotation Yrotation
      JOINT spine2
      {
        OFFSET 0 9.09909 0
        CHANNELS 3 Zrotation Xrotation Yrotation
        JOINT Neck
        {
          OFFSET 0 23.3612 1.11378
          CHANNELS 3 Zrotation Xrotation Yrotation
          JOINT Head
          {
            OFFSET 0 7.05802 0
            CHANNELS 3 Zrotation Xrotation Yrotation
            End Site
            {
              OFFSET 0 17.0844 -5.63419
            }
          }
        }
        JOINT RightShoulder
        {
          OFFSET -3.83136 9.82631 -0.533491
          CHANNELS 3 Zrotation Xrotation Yrotation
          JOINT RightArm
          {
            OFFSET 0 12.8881 0
            CHANNELS 3 Zrotation Xrotation Yrotation
            JOINT RightArmRoll
            {
              OFFSET 0 6.50617 0
              CHANNELS 3 Zrotation Xrotation Yrotation
              JOINT RightForeArm
              {
                OFFSET 0 18.9501 0
                CHANNELS 3 Zrotation Xrotation Yrotation
                JOINT RightForeArmRoll
                {
                  OFFSET 0 7.30092 0
                  CHANNELS 3 Zrotation Xrotation Yrotation
                  JOINT RightHand
                  {
                    OFFSET 0 14.6514 0
                    CHANNELS 3 Zrotation Xrotation Yrotation
                    End Site
                    {
                      OFFSET 0 0 0
                    }
                  }
                }
              }
            }
          }
        }
        JOINT LeftShoulder
        {
          OFFSET 3.83136 9.82631 -0.533491
          CHANNELS 3 Zrotation Xrotation Yrotation
          JOINT LeftArm
          {
            OFFSET 0 12.8881 0
            CHANNELS 3 Zrotation Xrotation Yrotation
            JOINT LeftArmRoll
            {
              OFFSET 0 6.50617 0
              CHANNELS 3 Zrotation Xrotation Yrotation
              JOINT LeftForeArm
              {
                OFFSET 0 18.9501 0
                CHANNELS 3 Zrotation Xrotation Yrotation
                JOINT LeftForeArmRoll
                {
                  OFFSET 0 7.30092 0
                  CHANNELS 3 Zrotation Xrotation Yrotation
                  JOINT LeftHand
                  {
                    OFFSET 0 14.6514 0
                    CHANNELS 3 Zrotation Xrotation Yrotation
                    End Site
                    {
                      OFFSET 0 0 0
                    }
                  }
                }
              }
            }
          }
        }
      }
    }
  }
  JOINT RightUpLeg
  {
    OFFSET -6.06837 -1.11278 -0.933477
    CHANNELS 3 Zrotation Xrotation Yrotation
    JOINT RightUpLegRoll
    {
      OFFSET 0 17.1796 0
      CHANNELS 3 Zrotation Xrotation Yrotation
      JOINT RightLeg
      {
        OFFSET 0 -21.2743 0
        CHANNELS 3 Zrotation Xrotation Yrotation
        JOINT RightLegRoll
        {
          OFFSET 0 21.3439 0
          CHANNELS 3 Zrotation Xrotation Yrotation
          JOINT RightFoot
          {
            OFFSET 0 17.7652 0
            CHANNELS 3 Zrotation Xrotation Yrotation
            JOINT RightToeBase
            {
              OFFSET 0 14.8508 0
              CHANNELS 3 Zrotation Xrotation Yrotation
              End Site
              {
                OFFSET 0.0062947 7.19214 -0.829005
              }
            }
          }
        }
      }
    }
  }
  JOINT LeftUpLeg
  {
    OFFSET 6.06837 -1.11278 -0.933477
    CHANNELS 3 Zrotation Xrotation Yrotation
    JOINT LeftUpLegRoll
    {
      OFFSET 0 17.1797 0
      CHANNELS 3 Zrotation Xrotation Yrotation
      JOINT LeftLeg
      {
        OFFSET 0 21.2742 0
        CHANNELS 3 Zrotation Xrotation Yrotation
        JOINT LeftLegRoll
        {
          OFFSET 0 21.5412 0
          CHANNELS 3 Zrotation Xrotation Yrotation
          JOINT LeftFoot
          {
            OFFSET 0 17.5679 0
            CHANNELS 3 Zrotation Xrotation Yrotation
            JOINT LeftToeBase
            {
              OFFSET 0 14.8508 0
              CHANNELS 3 Zrotation Xrotation Yrotation
              End Site
              {
                OFFSET -0.0282102 7.19214 -0.829004
              }
            }
          }
        }
      }
    }
  }
}
MOTION
Frames: 13
Frame Time: 0.00208333
51.8368 91.5421 3.4361 -2.28319 0.777813 -1.19441 0.0333499 -2.10178 0.238198 0.0664232 -0.200547 0.473343 0.06077 1.4445 0.472336 -3.67302 18.5438 0.0972865 7.60189 -0.227348 -0.462944 45.6313 1.92418 3.33794 104.772 62.7754 -5.50117 -2.00282e-007 2.86291e-007 -4.71742e-006 6.31696 59.4484 -5.26766 2.21778e-006 -4.56892e-006 -3.00333 8.02884 -4.95124 0.697594 -57.9665 -11.2193 7.00429 -103.372 23.3583 28.6066 5.6382e-006 -5.86812e-008 3.48269e-006 147.494 74.54 -133.67 4.19099e-007 -5.38619e-006 3 -8.02905 -4.9514 -0.697696 179.217 5.54465 -1.60745 180 7.01568e-015 179.018 178.822 6.25 179.861 1.51005e-007 6.48036e-006 0.0169912 -18.0571 67.0707 18.7879 8.1365 25.2327 -3.48774 -170.197 3.40483 -2.8716 4.54188e-006 -4.6773e-006 -1.06697 -1.75284 -8.0439 0.136985 -4.46245e-006 -6.55385e-007 -0.108112 18.8786 68.2593 -19.7508 -8.13649 25.2327 3.48774 
51.8573 91.5408 3.42767 -2.26129 0.800926 -1.46684 0.031777 -2.10524 0.229306 0.0625393 -0.207491 0.455713 0.057096 1.43756 0.454766 -3.29887 18.5104 0.0463465 7.13328 -0.207097 -0.428039 45.8889 1.84014 3.22777 104.811 62.393 -5.83223 -2.00282e-007 2.86291e-007 -4.71742e-006 6.36874 60.166 -5.3613 2.21778e-006 -4.56892e-006 -3.00333 8.02884 -4.95124 0.697594 -57.6519 -11.19 6.98892 -103.515 23.8452 28.4736 5.6382e-006 -5.86812e-008 3.48269e-006 147.538 74.7886 -133.929 4.19099e-007 -5.38619e-006 3 -8.02905 -4.9514 -0.697696 179.191 5.61785 -1.60119 180 7.01568e-015 179.018 178.827 6.2608 179.861 1.51005e-007 6.48036e-006 0.0166611 -18.0528 67.0655 18.7837 8.1365 25.2327 -3.48774 -170.231 3.35763 -2.87213 4.54188e-006 -4.6773e-006 -1.06822 -1.77895 -8.04471 0.135106 -4.46245e-006 -6.55385e-007 -0.107644 18.8745 68.2544 -19.7466 -8.13649 25.2327 3.48774 
51.8742 91.5394 3.41214 -2.23903 0.825582 -1.73812 0.030099 -2.10903 0.220381 0.0584677 -0.215079 0.438024 0.0532351 1.42997 0.437141 -2.92216 18.4767 -0.00488588 6.66278 -0.187027 -0.392705 46.1471 1.75498 3.11705 104.842 62.0043 -6.15724 -2.00282e-007 2.86291e-007 -4.71742e-006 6.41483 60.8812 -5.45281 2.21778e-006 -4.56892e-006 -3.00332 8.02884 -4.95124 0.697594 -57.3341 -11.1615 6.97377 -103.664 24.3308 28.339 5.6382e-006 -5.86812e-008 3.48269e-006 147.564 75.0465 -134.174 4.19099e-007 -5.38619e-006 3 -8.02905 -4.9514 -0.697696 179.166 5.69299 -1.59539 180 7.01568e-015 179.018 178.831 6.2716 179.861 1.51005e-007 6.48036e-006 0.016326 -18.0486 67.0603 18.7794 8.1365 25.2327 -3.48774 -170.266 3.31297 -2.87259 4.54188e-006 -4.6773e-006 -1.06943 -1.80526 -8.0456 0.133212 -4.46245e-006 -6.55385e-007 -0.107182 18.8702 68.2493 -19.742 -8.13649 25.2327 3.48774 
51.8849 91.5365 3.40754 -2.21616 0.851018 -2.00841 0.0283965 -2.113 0.211475 0.0543836 -0.22303 0.420375 0.0493611 1.42202 0.419557 -2.54635 18.4434 -0.0554124 6.19339 -0.167619 -0.356864 46.4041 1.66897 3.00633 104.866 61.609 -6.47647 -2.00282e-007 2.86291e-007 -4.71742e-006 6.45417 61.5927 -5.54107 2.21778e-006 -4.56892e-006 -3.00332 8.02884 -4.95124 0.697594 -57.0155 -11.133 6.95827 -103.816 24.8223 28.203 5.6382e-006 -5.86812e-008 3.48269e-006 147.56 75.3185 -134.394 4.19099e-007 -5.38619e-006 3 -8.02905 -4.9514 -0.697696 179.14 5.7692 -1.58988 180 7.01568e-015 179.018 178.836 6.28235 179.86 1.51005e-007 6.48036e-006 0.0159864 -18.0444 67.0552 18.7752 8.1365 25.2327 -3.48774 -170.302 3.26983 -2.87271 4.54188e-006 -4.6773e-006 -1.0706 -1.83161 -8.0462 0.131297 -4.46245e-006 -6.55385e-007 -0.106733 18.8655 68.2437 -19.7371 -8.13649 25.2327 3.48774 
51.9061 91.5352 3.42619 -2.19245 0.876469 -2.27784 0.0267503 -2.117 0.202642 0.0504623 -0.231063 0.402868 0.0456484 1.41399 0.402112 -2.17489 18.4111 -0.104236 5.72814 -0.149349 -0.32044 46.6578 1.58234 2.89616 104.885 61.2066 -6.79019 -2.00282e-007 2.86291e-007 -4.71742e-006 6.48559 62.2988 -5.6248 2.21778e-006 -4.56892e-006 -3.00332 8.02884 -4.95124 0.697594 -56.6985 -11.1037 6.94179 -103.967 25.327 28.0658 5.6382e-006 -5.86812e-008 3.48269e-006 147.511 75.6096 -134.578 4.19099e-007 -5.38619e-006 3 -8.02905 -4.9514 -0.697696 179.114 5.84559 -1.58451 180 7.01568e-015 179.018 178.841 6.29293 179.86 1.51005e-007 6.48036e-006 0.0156426 -18.0403 67.0502 18.7711 8.1365 25.2327 -3.48774 -170.339 3.22714 -2.8722 4.54188e-006 -4.6773e-006 -1.07174 -1.85787 -8.04613 0.129355 -4.46245e-006 -6.55385e-007 -0.1063 18.8605 68.2377 -19.7319 -8.13649 25.2327 3.48774 
51.9238 91.5339 3.41482 -2.16768 0.901174 -2.54657 0.0252412 -2.12091 0.193936 0.0468798 -0.238896 0.385602 0.0422717 1.40616 0.384901 -1.81125 18.3805 -0.150363 5.27003 -0.132696 -0.283352 46.9064 1.49534 2.7871 104.901 60.797 -7.09865 -2.00282e-007 2.86291e-007 -4.71742e-006 6.50774 62.9981 -5.7026 2.21778e-006 -4.56892e-006 -3.00332 8.02884 -4.95124 0.697594 -56.3855 -11.0726 6.92375 -104.114 25.852 27.928 5.6382e-006 -5.86812e-008 3.48269e-006 147.403 75.9249 -134.712 4.19099e-007 -5.38619e-006 3 -8.02905 -4.9514 -0.697696 179.088 5.9213 -1.57911 180 7.01568e-015 179.018 178.846 6.30328 179.859 1.51005e-007 6.48036e-006 0.0152949 -18.0363 67.0452 18.767 8.1365 25.2327 -3.48774 -170.377 3.18389 -2.87079 4.54188e-006 -4.6773e-006 -1.07286 -1.8839 -8.04501 0.12738 -4.46245e-006 -6.55385e-007 -0.105889 18.855 68.2312 -19.7262 -8.13649 25.2327 3.48774 
51.9442 91.532 3.42035 -2.14167 0.924368 -2.81473 0.0239502 -2.12458 0.185412 0.0438122 -0.24625 0.368677 0.0394059 1.39881 0.368023 -1.45887 18.3523 -0.192798 4.82206 -0.118139 -0.245524 47.148 1.40822 2.67968 104.916 60.3796 -7.40207 -2.00282e-007 2.86291e-007 -4.71742e-006 6.51912 63.6891 -5.7729 2.21778e-006 -4.56892e-006 -3.00332 8.02884 -4.95124 0.697594 -56.0789 -11.0389 6.90355 -104.255 26.4048 27.7901 5.6382e-006 -5.86812e-008 3.48269e-006 147.219 76.2692 -134.783 4.19099e-007 -5.38619e-006 3 -8.02905 -4.9514 -0.697696 179.061 5.99545 -1.57352 180 7.01568e-015 179.018 178.853 6.31335 179.859 1.51005e-007 6.48036e-006 0.0149438 -18.0323 67.0404 18.763 8.1365 25.2327 -3.48774 -170.416 3.13902 -2.86818 4.54188e-006 -4.6773e-006 -1.07396 -1.90956 -8.04245 0.125366 -4.46245e-006 -6.55385e-007 -0.105505 18.8491 68.2241 -19.72 -8.13649 25.2327 3.48774 
51.9595 91.5325 3.4157 -2.11422 0.945291 -3.08248 0.0229583 -2.12787 0.177121 0.0414361 -0.252843 0.352192 0.0372267 1.39222 0.351575 -1.1212 18.3273 -0.230548 4.38726 -0.106157 -0.206878 47.3808 1.32123 2.57446 104.932 59.9542 -7.70068 -2.00282e-007 2.86291e-007 -4.71742e-006 6.51806 64.3703 -5.83394 2.21778e-006 -4.56892e-006 -3.00332 8.02884 -4.95124 0.697594 -55.781 -11.0016 6.88058 -104.387 26.9926 27.6527 5.6382e-006 -5.86812e-008 3.48269e-006 146.941 76.6476 -134.775 4.19099e-007 -5.38619e-006 3 -8.02905 -4.9514 -0.697696 179.033 6.06716 -1.5676 180 7.01568e-015 179.019 178.859 6.32301 179.858 1.51005e-007 6.48036e-006 0.0145896 -18.0284 67.0356 18.7591 8.1365 25.2327 -3.48774 -170.458 3.0915 -2.8641 4.54188e-006 -4.6773e-006 -1.07505 -1.9347 -8.0381 0.123309 -4.46245e-006 -6.55385e-007 -0.105154 18.8427 68.2165 -19.7133 -8.13649 25.2327 3.48774 
51.9762 91.531 3.41245 -2.08515 0.963181 -3.34995 0.0223466 -2.13064 0.16912 0.0399286 -0.258394 0.336248 0.0359097 1.38667 0.335652 -0.801678 18.306 -0.262622 3.96863 -0.0972275 -0.167336 47.6027 1.23462 2.47199 104.95 59.5204 -7.99468 -2.00282e-007 2.86291e-007 -4.71742e-006 6.50267 65.0401 -5.8838 2.21778e-006 -4.56892e-006 -3.00332 8.02884 -4.95124 0.697594 -55.4942 -10.96 6.85426 -104.505 27.623 27.5168 5.6382e-006 -5.86812e-008 3.48269e-006 146.546 77.0648 -134.668 4.19099e-007 -5.38619e-006 3 -8.02905 -4.9514 -0.697696 179.004 6.13555 -1.56116 180 7.01568e-015 179.019 178.867 6.33219 179.857 1.51005e-007 6.48036e-006 0.0142327 -18.0246 67.031 18.7554 8.1365 25.2327 -3.48774 -170.502 3.04028 -2.85826 4.54188e-006 -4.6773e-006 -1.07614 -1.95919 -8.03155 0.121202 -4.46245e-006 -6.55385e-007 -0.104841 18.8357 68.2082 -19.706 -8.13649 25.2327 3.48774 
51.991 91.53 3.41059 -2.05432 0.97728 -3.61731 0.0221964 -2.13275 0.16146 0.0394667 -0.262622 0.320944 0.035631 1.38244 0.320353 -0.503754 18.2892 -0.288028 3.56919 -0.0918296 -0.126819 47.8121 1.14862 2.37282 104.973 59.0779 -8.28428 -2.00282e-007 2.86291e-007 -4.71742e-006 6.47087 65.697 -5.92033 2.21778e-006 -4.56892e-006 -3.00332 8.02884 -4.95124 0.697594 -55.221 -10.9132 6.82399 -104.607 28.3034 27.3834 5.6382e-006 -5.86812e-008 3.48269e-006 146.011 77.5257 -134.44 4.19099e-007 -5.38619e-006 3 -8.02905 -4.9514 -0.697696 178.974 6.19976 -1.55406 180 7.01568e-015 179.02 178.875 6.34083 179.856 1.51005e-007 6.48036e-006 0.0138735 -18.021 67.0266 18.7517 8.1365 25.2327 -3.48774 -170.549 2.98433 -2.85039 4.54188e-006 -4.6773e-006 -1.07722 -1.98289 -8.02245 0.11904 -4.46245e-006 -6.55385e-007 -0.104571 18.8282 68.1992 -19.6981 -8.13649 25.2327 3.48774 
52.0092 91.5278 3.40531 -2.02066 0.989099 -3.88454 0.0223138 -2.1346 0.15418 0.039687 -0.26631 0.306372 0.0360259 1.37875 0.305774 -0.227139 18.2769 -0.30696 3.18783 -0.0896371 -0.0854566 48.0085 1.06262 2.27636 105.001 58.6258 -8.57093 -2.00282e-007 2.86291e-007 -4.71742e-006 6.4229 66.3431 -5.94458 2.21778e-006 -4.56892e-006 -3.00332 8.02884 -4.95124 0.697594 -54.9611 -10.8618 6.79032 -104.689 29.0304 27.2539 5.6382e-006 -5.86812e-008 3.48269e-006 145.344 78.0273 -134.097 4.19099e-007 -5.38619e-006 3 -8.02905 -4.9514 -0.697696 178.941 6.26206 -1.54583 180 7.01568e-015 179.02 178.885 6.3491 179.856 1.51005e-007 6.48036e-006 0.0135104 -18.0174 67.0222 18.7481 8.1365 25.2327 -3.48774 -170.6 2.92534 -2.83971 4.54188e-006 -4.6773e-006 -1.07827 -2.00583 -8.0102 0.116807 -4.46245e-006 -6.55385e-007 -0.104349 18.8196 68.189 -19.6892 -8.13649 25.2327 3.48774 
52.0404 91.5287 3.40639 -1.98363 1.00063 -4.15148 0.0224631 -2.13662 0.147242 0.0401184 -0.270356 0.292482 0.0366239 1.37471 0.291874 0.0323673 18.2683 -0.320711 2.82024 -0.089858 -0.0434312 48.194 0.975857 2.18155 105.032 58.164 -8.85549 -2.00282e-007 2.86291e-007 -4.71742e-006 6.35999 66.9815 -5.95859 2.21778e-006 -4.56892e-006 -3.00332 8.02884 -4.95124 0.697594 -54.7116 -10.8074 6.75434 -104.753 29.7933 27.1292 5.6382e-006 -5.86812e-008 3.48269e-006 144.567 78.5617 -133.658 4.19099e-007 -5.38619e-006 3 -8.02905 -4.9514 -0.697696 178.906 6.32513 -1.5363 180 7.01568e-015 179.021 178.895 6.35723 179.855 1.51005e-007 6.48036e-006 0.0131419 -18.0138 67.0178 18.7445 8.1365 25.2327 -3.48774 -170.656 2.86576 -2.82598 4.54188e-006 -4.6773e-006 -1.07927 -2.0282 -7.99481 0.114497 -4.46245e-006 -6.55385e-007 -0.104173 18.8098 68.1773 -19.6788 -8.13649 25.2327 3.48774 
52.0563 91.5272 3.4079 -1.94381 1.01182 -4.41801 0.0226625 -2.13876 0.140594 0.0407776 -0.274653 0.279165 0.0374428 1.37041 0.278543 0.277196 18.2628 -0.329937 2.46467 -0.0922719 -0.000749313 48.37 0.888409 2.08824 105.065 57.6931 -9.13723 -2.00282e-007 2.86291e-007 -4.71742e-006 6.28142 67.6126 -5.96147 2.21778e-006 -4.56892e-006 -3.00332 8.02884 -4.95124 0.697594 -54.4708 -10.7504 6.71627 -104.803 30.5882 27.0089 5.6382e-006 -5.86812e-008 3.48269e-006 143.662 79.126 -133.102 4.19099e-007 -5.38619e-006 3 -8.02905 -4.9514 -0.697696 178.868 6.38871 -1.52578 180 7.01569e-015 179.022 178.905 6.3652 179.853 1.51005e-007 6.48036e-006 0.0127684 -18.0102 67.0135 18.7409 8.1365 25.2327 -3.48774 -170.716 2.80568 -2.8097 4.54188e-006 -4.6773e-006 -1.08021 -2.0501 -7.97678 0.112121 -4.46245e-006 -6.55385e-007 -0.104036 18.7989 68.1643 -19.6674 -8.13649 25.2327 3.48774 
